<svg xmlns="http://www.w3.org/2000/svg" enable-background="new 0 0 4000 4000" viewBox="0 0 4000 4000"><path fill="#fff" d="M1160 2000c0 463.184 376.816 840 840 840s840-376.816 840-840-376.816-840-840-840S1160 1536.816 1160 2000zM1400 2000c0-37.266 4.453-73.418 11.016-108.809C1446.699 1884.57 1482.969 1880 1520 1880c330.82 0 600 269.18 600 600 0 37.031-4.57 73.301-11.25 108.984-35.391 6.562-71.484 11.016-108.75 11.016C1669.18 2600 1400 2330.82 1400 2000zM2000 1400c330.82 0 600 269.18 600 600 0 195.293-95.215 367.441-240.117 477.07-1.641-460.84-376.113-835.312-836.953-836.953C1632.559 1495.215 1804.707 1400 2000 1400zM2120 920V680c0-66.27-53.73-120-120-120s-120 53.73-120 120v240c0 66.27 53.73 120 120 120S2120 986.27 2120 920zM3138.242 1031.445c46.875-46.875 46.875-122.812 0-169.688s-122.93-46.875-169.688 0l-169.688 169.688c-46.875 46.875-46.875 122.871 0 169.746 23.438 23.379 54.141 35.098 84.844 35.098s61.406-11.719 84.844-35.156L3138.242 1031.445zM3320 1880h-240c-66.27 0-120 53.73-120 120s53.73 120 120 120h240c66.27 0 120-53.73 120-120S3386.27 1880 3320 1880zM2968.555 2798.867c-46.875-46.875-122.812-46.875-169.688-.059-46.875 46.875-46.875 122.871 0 169.746l169.688 169.688c23.379 23.438 54.141 35.156 84.844 35.156s61.406-11.719 84.844-35.156c46.875-46.875 46.875-122.812 0-169.688L2968.555 2798.867zM2000 3440c66.27 0 120-53.73 120-120v-240c0-66.27-53.73-120-120-120s-120 53.73-120 120v240C1880 3386.27 1933.73 3440 2000 3440zM1031.445 3138.242l169.688-169.688c46.875-46.875 46.875-122.871 0-169.746-46.875-46.816-122.812-46.816-169.688.059l-169.688 169.688c-46.875 46.875-46.875 122.812 0 169.688 23.438 23.438 54.141 35.156 84.844 35.156S1008.066 3161.68 1031.445 3138.242zM560 2000c0 66.27 53.73 120 120 120h240c66.27 0 120-53.73 120-120s-53.73-120-120-120H680C613.73 1880 560 1933.73 560 2000zM1031.445 861.758c-46.758-46.875-122.812-46.875-169.688 0s-46.875 122.812 0 169.688l169.688 169.688c23.438 23.438 54.141 35.156 84.844 35.156s61.406-11.719 84.844-35.098c46.875-46.875 46.875-122.871 0-169.746L1031.445 861.758z"/></svg>